<?xml version="1.0" standalone="no"?>
<!DOCTYPE svg PUBLIC "-//W3C//DTD SVG 20010904//EN"
 "http://www.w3.org/TR/2001/REC-SVG-20010904/DTD/svg10.dtd">
<svg version="1.0" xmlns="http://www.w3.org/2000/svg"
 width="500.000000pt" height="242.000000pt" viewBox="0 0 500.000000 242.000000"
 preserveAspectRatio="xMidYMid meet">

<g transform="translate(0.000000,242.000000) scale(0.100000,-0.100000)"
fill="#ccff00" stroke="none">
<path d="M793 2362 c-21 -35 -44 -55 -77 -71 -53 -26 -61 -23 -92 34 -35 65
-46 38 -14 -34 28 -61 25 -103 -12 -173 -35 -65 -66 -93 -96 -84 -12 4 -37 -8
-76 -39 -51 -39 -65 -45 -107 -45 -42 0 -55 5 -87 35 -63 56 -126 69 -202 40
-39 -14 -32 -20 39 -30 49 -7 141 -52 190 -93 l32 -27 -20 -40 c-15 -32 -17
-51 -12 -90 7 -47 8 -48 15 -20 4 17 10 41 12 55 8 40 29 64 108 129 l75 62
39 -20 c22 -11 74 -58 116 -105 63 -69 86 -88 127 -101 28 -10 68 -34 90 -55
37 -35 39 -39 28 -66 -6 -18 -8 -52 -4 -88 8 -78 -3 -84 -77 -43 -60 33 -91
30 -48 -5 58 -46 189 -119 274 -153 50 -20 97 -42 105 -48 22 -18 6 -141 -26
-205 -15 -29 -31 -56 -35 -58 -5 -3 -39 -10 -76 -15 -75 -11 -112 -34 -71 -44
13 -3 58 -1 99 4 66 8 78 13 101 40 14 17 29 31 33 31 4 0 54 -18 112 -41 104
-41 136 -65 127 -98 -6 -23 12 -36 136 -101 l106 -55 0 -71 c0 -86 -14 -116
-66 -139 -41 -19 -59 -55 -59 -120 0 -65 -6 -71 -68 -70 -47 0 -66 -6 -107
-32 -46 -29 -55 -31 -115 -27 l-65 6 25 -21 c56 -46 60 -46 154 -1 58 27 95
40 110 36 33 -8 119 -96 182 -187 31 -43 67 -88 81 -99 24 -19 89 -29 81 -12
-2 4 -30 60 -61 125 -31 65 -70 138 -87 162 -34 49 -36 64 -16 103 7 15 16 44
20 64 5 30 15 41 49 60 37 20 46 34 77 105 44 102 50 109 78 83 11 -11 24 -20
27 -20 3 0 5 26 5 59 0 52 2 59 23 65 43 11 88 6 135 -18 26 -13 70 -31 97
-40 55 -18 388 -86 421 -86 11 0 39 18 61 39 42 42 101 64 142 54 14 -3 43
-21 64 -40 37 -33 38 -33 73 -18 32 13 39 13 64 0 16 -8 51 -15 77 -15 41 0
61 -8 128 -50 43 -27 95 -52 114 -55 20 -3 48 -8 64 -10 15 -3 27 -1 27 4 0
19 -39 41 -76 41 -28 0 -59 13 -114 46 -92 55 -157 75 -262 79 -67 3 -82 6
-94 23 -8 11 -30 26 -49 32 -25 8 -35 18 -35 32 0 36 88 204 121 232 28 24 34
40 56 138 16 77 21 114 13 122 -15 15 -12 52 5 86 14 27 20 30 65 30 45 0 50
-3 56 -25 10 -41 27 -29 21 15 -7 52 16 68 58 40 26 -17 31 -17 67 -3 21 8 44
13 51 10 8 -3 33 -41 55 -85 58 -110 82 -129 208 -161 25 -7 64 -31 99 -62
l58 -51 101 7 c83 6 110 4 151 -11 28 -10 70 -20 95 -23 l45 -6 43 -128 c48
-143 61 -219 43 -241 -7 -8 -25 -18 -41 -21 -16 -4 -41 -21 -56 -38 -23 -27
-25 -37 -20 -77 6 -41 8 -115 3 -129 -1 -3 3 -7 8 -8 17 -4 26 48 20 108 -5
51 -3 60 20 87 20 24 35 32 68 34 34 2 42 7 48 28 12 44 9 153 -6 215 -28 115
-15 165 43 165 36 0 88 33 105 67 8 15 18 48 22 73 12 74 44 132 101 188 66
65 64 65 213 -16 91 -50 109 -64 138 -110 49 -76 93 -123 130 -138 63 -27 89
-10 29 19 -25 12 -36 25 -41 49 -13 58 -31 82 -127 164 -67 58 -108 86 -146
98 -62 21 -138 76 -136 99 2 19 40 84 85 143 l31 42 -26 54 c-14 30 -26 65
-26 78 0 39 31 138 46 144 7 3 35 1 63 -3 27 -4 54 -5 59 -2 5 3 17 31 27 61
24 74 30 80 86 80 27 0 49 5 49 10 0 6 -26 10 -59 10 -70 0 -86 -12 -102 -76
-6 -24 -16 -47 -21 -50 -18 -11 -88 8 -131 37 -39 26 -47 37 -62 92 -20 68
-31 62 -20 -11 5 -34 16 -55 39 -77 l33 -31 -28 -69 c-31 -77 -35 -113 -17
-178 16 -61 7 -84 -69 -177 -38 -45 -79 -98 -92 -118 -13 -19 -37 -47 -54 -61
-61 -52 -87 -99 -87 -161 0 -31 -6 -63 -12 -72 -20 -26 -133 -68 -204 -77 -43
-5 -85 -3 -127 6 -81 17 -116 16 -151 -2 -35 -18 -82 -7 -112 26 -29 33 -94
67 -149 79 -61 14 -109 49 -134 98 -10 20 -40 66 -66 101 -66 89 -67 112 -11
234 24 54 46 101 49 103 3 3 29 -7 59 -22 50 -25 56 -26 109 -15 30 6 76 11
102 11 35 0 47 4 47 15 0 12 -18 15 -100 15 l-101 0 16 30 c12 22 17 64 18
150 2 102 -1 122 -15 137 -17 16 -18 14 -18 -52 -1 -73 -22 -181 -39 -198 -5
-5 -39 -8 -74 -5 l-65 4 -7 -45 c-9 -56 -46 -140 -73 -165 -19 -16 -21 -26
-15 -76 6 -66 -2 -74 -63 -60 -33 8 -47 5 -91 -16 l-52 -25 -48 28 c-26 15
-77 35 -113 44 l-65 16 3 149 c1 82 4 159 7 172 4 15 1 22 -9 22 -22 0 -36
-107 -36 -268 0 -124 -2 -146 -20 -174 -22 -37 -25 -48 -10 -48 5 0 25 22 42
50 18 27 39 52 45 54 16 6 99 -18 118 -34 19 -16 20 -60 1 -60 -8 0 -20 -16
-26 -35 -10 -30 -9 -40 4 -60 21 -32 20 -110 -3 -160 -10 -22 -41 -65 -68 -95
-28 -31 -68 -85 -88 -120 -49 -84 -79 -116 -140 -148 -79 -42 -90 -43 -142
-15 -26 13 -119 47 -207 74 -88 28 -181 61 -207 75 -32 16 -65 24 -98 24 -65
0 -81 -7 -81 -36 l0 -23 -52 16 c-70 20 -178 77 -225 118 l-38 33 45 46 c28
29 56 48 77 52 37 7 43 19 12 27 -11 3 -23 15 -26 26 -7 29 -14 26 -41 -13
-12 -18 -33 -43 -46 -55 l-23 -22 -127 32 c-73 18 -130 38 -133 45 -8 23 5 61
32 90 14 15 25 31 25 35 0 15 -44 37 -90 44 -47 8 -219 70 -234 85 -7 7 -24
164 -29 271 -1 29 -4 35 -19 31 -10 -2 -21 -8 -24 -13 -10 -17 -36 -9 -71 21
-18 17 -44 30 -57 30 -18 0 -38 21 -90 98 -36 53 -66 105 -66 116 0 10 10 34
22 54 12 19 25 58 29 86 7 42 14 56 45 81 74 60 123 110 126 129 6 37 -19 26
-49 -22z"/>
</g>
</svg>
